<?xml version="1.0" encoding="UTF-8" standalone="no"?>
<!-- Generator: Adobe Illustrator 23.0.0, SVG Export Plug-In . SVG Version: 6.00 Build 0)  -->

<svg
   version="1.1"
   id="图层_1"
   x="0px"
   y="0px"
   viewBox="0 0 400.28 400.28"
   style="enable-background:new 0 0 595.28 595.28;"
   xml:space="preserve"
   sodipodi:docname="logo.svg"
   inkscape:version="1.2.2 (b0a8486, 2022-12-01)"
   xmlns:inkscape="http://www.inkscape.org/namespaces/inkscape"
   xmlns:sodipodi="http://sodipodi.sourceforge.net/DTD/sodipodi-0.dtd"
   xmlns="http://www.w3.org/2000/svg"
   xmlns:svg="http://www.w3.org/2000/svg"><defs
   id="defs11" /><sodipodi:namedview
   id="namedview9"
   pagecolor="#ffffff"
   bordercolor="#000000"
   borderopacity="0.25"
   inkscape:showpageshadow="2"
   inkscape:pageopacity="0.0"
   inkscape:pagecheckerboard="0"
   inkscape:deskcolor="#d1d1d1"
   showgrid="false"
   inkscape:zoom="0.58958729"
   inkscape:cx="117.87907"
   inkscape:cy="200.14"
   inkscape:window-width="1536"
   inkscape:window-height="840"
   inkscape:window-x="0"
   inkscape:window-y="25"
   inkscape:window-maximized="1"
   inkscape:current-layer="图层_1" />
<style
   type="text/css"
   id="style2">
	.st0{fill:#ffffff;}
	.st1{fill:#c45015;}
</style>
<rect
   style="display:inline;fill:#c45015;stroke-width:0.910914"
   id="rect223"
   width="398.58389"
   height="398.58392"
   x="0"
   y="0" />
<path
   class="st0"
   d="m 317.03234,134.35603 c 15.62634,0 28.27529,-12.8566 28.27529,-28.69412 0,-15.837532 -12.66893,-28.694118 -28.27529,-28.694118 -15.62633,0 -28.27528,12.856586 -28.27528,28.694118 0,5.79966 1.69852,11.21402 4.61597,15.71586 l -49.91636,45.18055 c -5.43525,-5.27242 -12.78882,-8.4967 -20.90174,-8.4967 -12.84876,0 -23.83915,8.13169 -28.23531,19.60933 l -90.06127,-7.84778 c -0.77932,-13.58662 -11.869618,-24.35452 -25.437758,-24.35452 -14.08768,0 -25.49771,11.57904 -25.49771,25.87541 0,14.29636 11.41003,25.8754 25.49771,25.8754 11.48995,0 21.201458,-7.70585 24.378688,-18.31151 l 89.14207,7.76667 c -0.04,0.70975 -0.08,1.41949 -0.08,2.12925 0,16.97312 13.54817,30.72197 30.27355,30.72197 5.61508,0 10.87048,-1.56146 15.38654,-4.25849 l 32.11193,42.44295 c -6.31448,6.00245 -10.27102,14.51943 -10.27102,23.98949 0,18.14929 14.48733,32.85122 32.3717,32.85122 17.88436,0 32.37169,-14.70193 32.37169,-32.85122 0,-18.14927 -14.48733,-32.8512 -32.37169,-32.8512 -5.29537,0 -10.31099,1.29783 -14.72713,3.5893 l -32.51158,-42.94993 c 4.91571,-5.45492 7.91309,-12.73491 7.91309,-20.70437 0,-5.45492 -1.39879,-10.56512 -3.85663,-15.00611 l 50.45589,-45.66724 c 4.87573,3.91376 10.99038,6.24579 17.62459,6.24579 z"
   id="path6"
   style="stroke-width:2.013" />
</svg>
